<svg width="512" height="512" xmlns="http://www.w3.org/2000/svg">
 <title/>

 <g>
  <title>background</title>
 </g>
 <g>
  <title>Layer 1</title>
  <path id="svg_1" d="m413.12,295.76l-262.66,0a15,15 0 0 1 -14.89,-13.23l-19.57,-164.87c0,-0.14 0,-0.28 0,-0.43l-4.52,-38l-42.35,0a15,15 0 1 1 0,-30l55.6,0a15,15 0 0 1 14.9,13.23l4.54,38.23l297,0a15,15 0 0 1 14.79,17.51l-28,165.1a15,15 0 0 1 -14.84,12.46zm-249.33,-30l236.66,0l22.92,-135.1l-275.64,0l16.06,135.1z"/>
  <path id="svg_2" d="m410.65,349.37l-253.81,0a15,15 0 0 1 -14.9,-13.23l-16.6,-139.69a15,15 0 1 1 29.79,-3.54l15,126.46l240.52,0a15,15 0 0 1 0,30z"/>
  <path id="svg_3" d="m191.41,448.16a44.49,44.49 0 1 1 44.48,-44.48a44.53,44.53 0 0 1 -44.48,44.48zm0,-59a14.49,14.49 0 1 0 14.48,14.49a14.5,14.5 0 0 0 -14.48,-14.46l0,-0.03z"/>
  <path id="svg_4" d="m370.13,448.16a44.49,44.49 0 1 1 44.48,-44.48a44.53,44.53 0 0 1 -44.48,44.48zm0,-59a14.49,14.49 0 1 0 14.48,14.49a14.5,14.5 0 0 0 -14.48,-14.46l0,-0.03z"/>
 </g>
</svg>