<svg width="512" height="512" xmlns="http://www.w3.org/2000/svg">
 <g>
  <path fill="#ceae50" stroke="#ceae50" id="svg_1" d="m413.12,295.76l-262.66,0a15,15 0 0 1 -14.89,-13.23l-19.57,-164.87c0,-0.14 0,-0.28 0,-0.43l-4.52,-38l-42.35,0a15,15 0 1 1 0,-30l55.6,0a15,15 0 0 1 14.9,13.23l4.54,38.23l297,0a15,15 0 0 1 14.79,17.51l-28,165.1a15,15 0 0 1 -14.84,12.46zm14.498979,-179.069288l-28.352069,149.069288l22.92,-133.91691l-269.724552,-2.36618l11.327642,133.91691z"/>
  <path fill="#ceae50" stroke="#ceae50" id="svg_2" d="m410.65,349.37l-253.81,0a15,15 0 0 1 -14.9,-13.23l-16.6,-139.69a15,15 0 1 1 29.79,-3.54l15,126.46l240.52,0a15,15 0 0 1 0,30z"/>
  <path fill="#ceae50" stroke="#ceae50" id="svg_3" d="m191.41,448.16a44.49,44.49 0 1 1 44.48,-44.48a44.53,44.53 0 0 1 -44.48,44.48zm0,-59a14.49,14.49 0 1 0 14.48,14.49a14.5,14.5 0 0 0 -14.48,-14.46l0,-0.03z"/>
  <path fill="#ceae50" stroke="#ceae50" id="svg_4" d="m370.13,448.16a44.49,44.49 0 1 1 44.48,-44.48a44.53,44.53 0 0 1 -44.48,44.48zm0,-59a14.49,14.49 0 1 0 14.48,14.49a14.5,14.5 0 0 0 -14.48,-14.46l0,-0.03z"/>
  <rect id="svg_5" height="147.368207" width="260.525938" y="124.561223" x="145.91244" stroke-width="null" stroke="#ceae50" fill="#ceae50"/>
  <rect id="svg_6" height="42.105202" width="46.491161" y="385.08716" x="171.351" stroke-width="null" stroke="#ceae50" fill="#ceae50"/>
  <rect id="svg_7" height="36.842052" width="32.456093" y="387.718736" x="355.561259" stroke-width="null" stroke="#ceae50" fill="#ceae50"/>
 </g>
</svg>