<?xml version="1.0" encoding="UTF-8"?>
<svg xmlns="http://www.w3.org/2000/svg" xmlns:xlink="http://www.w3.org/1999/xlink" width="70pt" height="70pt" viewBox="0 0 70 70" version="1.1">
<g id="surface1">
<path style=" stroke:none;fill-rule:nonzero;fill:rgb(26.666667%,26.666667%,26.666667%);fill-opacity:1;" d="M 35 0 C 22.234375 0 11.847656 10.386719 11.847656 23.152344 C 11.847656 28.296875 15.128906 36.679688 21.882812 48.785156 C 26.660156 57.34375 31.359375 64.484375 31.558594 64.78125 L 35 70 L 38.441406 64.78125 C 38.640625 64.484375 43.339844 57.34375 48.117188 48.785156 C 54.871094 36.679688 58.152344 28.296875 58.152344 23.15625 C 58.152344 10.386719 47.765625 0 35 0 Z M 35 35 C 28.371094 35 22.996094 29.625 22.996094 22.996094 C 22.996094 16.371094 28.371094 10.996094 35 10.996094 C 41.628906 10.996094 47.003906 16.371094 47.003906 22.996094 C 47.003906 29.625 41.628906 35 35 35 Z M 35 35 "/>
</g>
</svg>
